<svg xmlns="http://www.w3.org/2000/svg" width="20" height="20" viewBox="0 0 20 20"><defs><style>.a{fill:#323232;}</style></defs><path class="a" d="M.12,5.39a.58.58,0,0,1,.5-.27H14l1-3.57a2.83,2.83,0,0,1,.38-.82,1.45,1.45,0,0,1,.5-.49,2,2,0,0,1,.46-.19,1.74,1.74,0,0,1,.39,0h2.69a.57.57,0,0,1,.43.18A.64.64,0,0,1,20,.65a.71.71,0,0,1-.08.31.54.54,0,0,1-.22.23.68.68,0,0,1-.31.08H16.7l-.15,0s-.1.07-.18.17a1.17,1.17,0,0,0-.2.46L12.7,15a.76.76,0,0,1-.13.23.56.56,0,0,1-.21.17.54.54,0,0,1-.25.06H3.63a.63.63,0,0,1-.37-.12.59.59,0,0,1-.22-.3L0,6A.7.7,0,0,1,.12,5.39Zm3.94,8.8h7.56l2-7.78H1.53ZM5.3,16.77a1.46,1.46,0,0,1,1.1.48,1.55,1.55,0,0,1,.47,1.14,1.59,1.59,0,0,1-.47,1.14,1.53,1.53,0,0,1-2.21,0,1.59,1.59,0,0,1-.47-1.14,1.55,1.55,0,0,1,.47-1.14A1.46,1.46,0,0,1,5.3,16.77Zm5.65,0a1.62,1.62,0,0,1,1.36.81,1.65,1.65,0,0,1-.25,2,1.55,1.55,0,0,1-2.22,0,1.58,1.58,0,0,1-.46-1.14,1.84,1.84,0,0,1,0-.33,1.71,1.71,0,0,1,.09-.3c0-.09.09-.18.14-.27a1.59,1.59,0,0,1,.2-.24,1.16,1.16,0,0,1,.24-.2,1.35,1.35,0,0,1,.26-.15,1,1,0,0,1,.3-.1A1.55,1.55,0,0,1,11,16.77Z" transform="translate(0)"/></svg>