<svg xmlns="http://www.w3.org/2000/svg" width="20" height="17.79" viewBox="0 0 20 17.79"><defs><style>.a{fill:#323232;}</style></defs><path class="a" d="M10,17.89a1.2,1.2,0,0,1-.77-.29c-.81-.71-1.59-1.37-2.28-2H7A42.23,42.23,0,0,1,2,11,7.47,7.47,0,0,1,0,6.1,6.19,6.19,0,0,1,1.59,1.84a5.34,5.34,0,0,1,4-1.75A5,5,0,0,1,8.73,1.18,6.45,6.45,0,0,1,10,2.51a6.45,6.45,0,0,1,1.27-1.33A5,5,0,0,1,14.41.09a5.34,5.34,0,0,1,4,1.75A6.19,6.19,0,0,1,20,6.1,7.47,7.47,0,0,1,18,11a42.23,42.23,0,0,1-5,4.66c-.69.58-1.47,1.25-2.28,2A1.2,1.2,0,0,1,10,17.89ZM5.59,1.27A4.2,4.2,0,0,0,2.45,2.63,5.05,5.05,0,0,0,1.17,6.1a6.25,6.25,0,0,0,1.72,4.13,42.3,42.3,0,0,0,4.82,4.52h0c.69.59,1.47,1.25,2.29,2,.82-.72,1.6-1.39,2.29-2a42.3,42.3,0,0,0,4.82-4.52A6.25,6.25,0,0,0,18.83,6.1a5.05,5.05,0,0,0-1.28-3.47,4.2,4.2,0,0,0-3.14-1.36A3.85,3.85,0,0,0,12,2.11a5.4,5.4,0,0,0-1.35,1.56.75.75,0,0,1-1.28,0A5.4,5.4,0,0,0,8,2.11,3.85,3.85,0,0,0,5.59,1.27Z" transform="translate(0 -0.09)"/></svg>