<svg xmlns="http://www.w3.org/2000/svg" width="24" height="15" viewBox="0 0 24 15"><defs><style>.a{fill:#323232;}</style></defs><path class="a" d="M23.45,1.06c.17-.58,0-1-.79-1H20a1.13,1.13,0,0,0-1.14.78,23.46,23.46,0,0,1-3.23,5.65c-.61.64-.89.85-1.22.85-.17,0-.41-.21-.41-.79V1.06c0-.7-.19-1-.75-1H9.15a.65.65,0,0,0-.67.63c0,.67.95.82,1,2.7V7.45c0,.89-.15,1-.49,1C8.15,8.5,6,5.06,4.7,1.12,4.45.36,4.2.05,3.53.05H.9C.15.05,0,.42,0,.83,0,1.56.89,5.19,4.15,10c2.17,3.28,5.22,5.06,8,5.06,1.67,0,1.88-.4,1.88-1.08V11.5c0-.79.16-.95.69-.95.38,0,1,.21,2.61,1.78,1.78,1.88,2.08,2.72,3.08,2.72H23c.75,0,1.13-.4.91-1.18a12.11,12.11,0,0,0-2.21-3.23c-.62-.76-1.53-1.58-1.81-2s-.28-.76,0-1.23C19.92,7.42,23.12,2.68,23.45,1.06Z" transform="translate(0 -0.05)"/></svg>