<svg xmlns="http://www.w3.org/2000/svg" width="18.74" height="18.74" viewBox="0 0 18.74 18.74"><defs><style>.a{fill:#323232;}</style></defs><path class="a" d="M10,6.88A3.12,3.12,0,1,0,13.12,10,3.12,3.12,0,0,0,10,6.88ZM19.37,10c0-1.29,0-2.58-.06-3.87A5.6,5.6,0,0,0,17.8,2.2,5.6,5.6,0,0,0,13.87.69C12.58.62,11.29.63,10,.63S7.43.62,6.14.69A5.63,5.63,0,0,0,2.21,2.2,5.55,5.55,0,0,0,.7,6.13C.62,7.43.63,8.71.63,10s0,2.58.07,3.87a5.51,5.51,0,0,0,1.51,3.92,5.61,5.61,0,0,0,3.93,1.52c1.29.07,2.57.06,3.86.06s2.58,0,3.87-.06a5.61,5.61,0,0,0,3.93-1.52,5.51,5.51,0,0,0,1.51-3.92C19.38,12.58,19.37,11.29,19.37,10ZM10,14.81A4.81,4.81,0,1,1,14.81,10,4.81,4.81,0,0,1,10,14.81Zm5-8.69A1.13,1.13,0,1,1,16.13,5a1.11,1.11,0,0,1-.09.43,1.08,1.08,0,0,1-.24.36,1.12,1.12,0,0,1-.37.24A1,1,0,0,1,15,6.12Z" transform="translate(-0.63 -0.63)"/></svg>