<svg xmlns="http://www.w3.org/2000/svg" width="17" height="20" viewBox="0 0 17 20">
  <metadata><?xpacket begin="﻿" id="W5M0MpCehiHzreSzNTczkc9d"?>
<x:xmpmeta xmlns:x="adobe:ns:meta/" x:xmptk="Adobe XMP Core 5.6-c142 79.160924, 2017/07/13-01:06:39        ">
   <rdf:RDF xmlns:rdf="http://www.w3.org/1999/02/22-rdf-syntax-ns#">
      <rdf:Description rdf:about=""/>
   </rdf:RDF>
</x:xmpmeta>
                                                                                                    
                                                                                                    
                                                                                                    
                                                                                                    
                                                                                                    
                                                                                                    
                                                                                                    
                                                                                                    
                                                                                                    
                                                                                                    
                                                                                                    
                                                                                                    
                                                                                                    
                                                                                                    
                                                                                                    
                                                                                                    
                                                                                                    
                                                                                                    
                                                                                                    
                                                                                                    
                           
<?xpacket end="w"?></metadata>
<defs>
    <style>
      .cls-1 {
        fill: #212121;
        fill-rule: evenodd;
      }
    </style>
  </defs>
  <path id="Войти" class="cls-1" d="M1814.5,47.523a4.762,4.762,0,1,1,4.72-4.762A4.749,4.749,0,0,1,1814.5,47.523Zm0-8.1a3.333,3.333,0,1,0,3.31,3.333A3.329,3.329,0,0,0,1814.5,39.428ZM1822.29,58h-15.58a0.714,0.714,0,0,1-.71-0.715V53.952a4.51,4.51,0,0,1,4.49-4.524h8.02a4.51,4.51,0,0,1,4.49,4.524v3.333A0.714,0.714,0,0,1,1822.29,58Zm-14.87-1.429h14.16V53.952a3.082,3.082,0,0,0-3.07-3.1h-8.02a3.082,3.082,0,0,0-3.07,3.1V56.57Z" transform="translate(-1806 -38)"/>
</svg>
