<svg width="184" height="26" viewBox="0 0 184 26" fill="none" xmlns="http://www.w3.org/2000/svg">
<path d="M7.98 5.12H0.14V0.499998H21.49V5.12H13.65V25H7.98V5.12ZM36.0639 25.42C33.5206 25.42 31.2223 24.8717 29.1689 23.775C27.1389 22.6783 25.5406 21.1733 24.3739 19.26C23.2306 17.3233 22.6589 15.1533 22.6589 12.75C22.6589 10.3467 23.2306 8.18833 24.3739 6.275C25.5406 4.33833 27.1389 2.82167 29.1689 1.725C31.2223 0.628333 33.5206 0.0799996 36.0639 0.0799996C38.6073 0.0799996 40.8939 0.628333 42.9239 1.725C44.9539 2.82167 46.5523 4.33833 47.7189 6.275C48.8856 8.18833 49.4689 10.3467 49.4689 12.75C49.4689 15.1533 48.8856 17.3233 47.7189 19.26C46.5523 21.1733 44.9539 22.6783 42.9239 23.775C40.8939 24.8717 38.6073 25.42 36.0639 25.42ZM36.0639 20.59C37.5106 20.59 38.8173 20.2633 39.9839 19.61C41.1506 18.9333 42.0606 18 42.7139 16.81C43.3906 15.62 43.7289 14.2667 43.7289 12.75C43.7289 11.2333 43.3906 9.88 42.7139 8.69C42.0606 7.5 41.1506 6.57833 39.9839 5.925C38.8173 5.24833 37.5106 4.91 36.0639 4.91C34.6173 4.91 33.3106 5.24833 32.1439 5.925C30.9773 6.57833 30.0556 7.5 29.3789 8.69C28.7256 9.88 28.3989 11.2333 28.3989 12.75C28.3989 14.2667 28.7256 15.62 29.3789 16.81C30.0556 18 30.9773 18.9333 32.1439 19.61C33.3106 20.2633 34.6173 20.59 36.0639 20.59ZM58.4634 5.12H50.6234V0.499998H71.9734V5.12H64.1334V25H58.4634V5.12ZM93.9941 20.45V25H75.0241V0.499998H93.5391V5.05H80.6591V10.37H92.0341V14.78H80.6591V20.45H93.9941ZM120.801 25L120.766 10.3L113.556 22.41H111.001L103.826 10.615V25H98.5056V0.499998H103.196L112.366 15.725L121.396 0.499998H126.051L126.121 25H120.801ZM149.923 12.26C151.323 12.7033 152.42 13.45 153.213 14.5C154.007 15.5267 154.403 16.7983 154.403 18.315C154.403 20.4617 153.563 22.1183 151.883 23.285C150.227 24.4283 147.8 25 144.603 25H131.933V0.499998H143.903C146.89 0.499998 149.177 1.07167 150.763 2.215C152.373 3.35833 153.178 4.91 153.178 6.87C153.178 8.06 152.887 9.12167 152.303 10.055C151.743 10.9883 150.95 11.7233 149.923 12.26ZM137.568 4.77V10.545H143.203C144.603 10.545 145.665 10.3 146.388 9.81C147.112 9.32 147.473 8.59667 147.473 7.64C147.473 6.68333 147.112 5.97167 146.388 5.505C145.665 5.015 144.603 4.77 143.203 4.77H137.568ZM144.183 20.73C145.677 20.73 146.797 20.485 147.543 19.995C148.313 19.505 148.698 18.7467 148.698 17.72C148.698 15.69 147.193 14.675 144.183 14.675H137.568V20.73H144.183ZM170.561 25.42C168.018 25.42 165.719 24.8717 163.666 23.775C161.636 22.6783 160.038 21.1733 158.871 19.26C157.728 17.3233 157.156 15.1533 157.156 12.75C157.156 10.3467 157.728 8.18833 158.871 6.275C160.038 4.33833 161.636 2.82167 163.666 1.725C165.719 0.628333 168.018 0.0799996 170.561 0.0799996C173.104 0.0799996 175.391 0.628333 177.421 1.725C179.451 2.82167 181.049 4.33833 182.216 6.275C183.383 8.18833 183.966 10.3467 183.966 12.75C183.966 15.1533 183.383 17.3233 182.216 19.26C181.049 21.1733 179.451 22.6783 177.421 23.775C175.391 24.8717 173.104 25.42 170.561 25.42ZM170.561 20.59C172.008 20.59 173.314 20.2633 174.481 19.61C175.648 18.9333 176.558 18 177.211 16.81C177.888 15.62 178.226 14.2667 178.226 12.75C178.226 11.2333 177.888 9.88 177.211 8.69C176.558 7.5 175.648 6.57833 174.481 5.925C173.314 5.24833 172.008 4.91 170.561 4.91C169.114 4.91 167.808 5.24833 166.641 5.925C165.474 6.57833 164.553 7.5 163.876 8.69C163.223 9.88 162.896 11.2333 162.896 12.75C162.896 14.2667 163.223 15.62 163.876 16.81C164.553 18 165.474 18.9333 166.641 19.61C167.808 20.2633 169.114 20.59 170.561 20.59Z" fill="#323232"/>
</svg>
